<svg xmlns="http://www.w3.org/2000/svg" xmlns:xlink="http://www.w3.org/1999/xlink" width="500" zoomAndPan="magnify" viewBox="0 0 375 374.999991" height="500" preserveAspectRatio="xMidYMid meet" version="1.0"><defs><g/><clipPath id="0afd989d28"><path d="M 155.144531 196.816406 L 174.976562 196.816406 L 174.976562 223.929688 L 155.144531 223.929688 Z M 155.144531 196.816406 " clip-rule="nonzero"/></clipPath><clipPath id="3c341c91d7"><path d="M 0.144531 0.816406 L 19.976562 0.816406 L 19.976562 27.929688 L 0.144531 27.929688 Z M 0.144531 0.816406 " clip-rule="nonzero"/></clipPath><clipPath id="21580c2411"><rect x="0" width="20" y="0" height="28"/></clipPath><clipPath id="fb0329c4ef"><path d="M 244.453125 172.300781 L 252.503906 172.300781 L 252.503906 187.5 L 244.453125 187.5 Z M 244.453125 172.300781 " clip-rule="nonzero"/></clipPath><clipPath id="6a67f47229"><path d="M 0.453125 0.300781 L 8.503906 0.300781 L 8.503906 15.5 L 0.453125 15.5 Z M 0.453125 0.300781 " clip-rule="nonzero"/></clipPath><clipPath id="227739e282"><rect x="0" width="9" y="0" height="16"/></clipPath><clipPath id="4c851d1bd9"><path d="M 162 193 L 181 193 L 181 221 L 162 221 Z M 162 193 " clip-rule="nonzero"/></clipPath><clipPath id="cd799dd133"><path d="M 167.488281 192.203125 L 180.523438 194.828125 L 175.085938 221.8125 L 162.050781 219.183594 Z M 167.488281 192.203125 " clip-rule="nonzero"/></clipPath><clipPath id="0e9bc83aab"><path d="M 171.628906 193.039062 L 180.523438 194.828125 L 170.953125 220.929688 L 162.0625 219.136719 Z M 171.628906 193.039062 " clip-rule="nonzero"/></clipPath><clipPath id="d5807b6eb1"><path d="M 0 0 L 18.71875 0 L 18.71875 28 L 0 28 Z M 0 0 " clip-rule="nonzero"/></clipPath><clipPath id="ed803d0d53"><path d="M 5.488281 -0.796875 L 18.523438 1.828125 L 13.085938 28.8125 L 0.0507812 26.183594 Z M 5.488281 -0.796875 " clip-rule="nonzero"/></clipPath><clipPath id="665ae9e20e"><path d="M 9.628906 0.0390625 L 18.523438 1.828125 L 8.953125 27.929688 L 0.0625 26.136719 Z M 9.628906 0.0390625 " clip-rule="nonzero"/></clipPath><clipPath id="bac1be9955"><rect x="0" width="19" y="0" height="28"/></clipPath><clipPath id="ad1586b452"><path d="M 244.46875 172.300781 L 258.128906 172.300781 L 258.128906 190.125 L 244.46875 190.125 Z M 244.46875 172.300781 " clip-rule="nonzero"/></clipPath><clipPath id="c3941f6e64"><path d="M 249.082031 172.300781 L 258.128906 172.300781 L 253.515625 190.097656 L 244.46875 190.097656 Z M 249.082031 172.300781 " clip-rule="nonzero"/></clipPath><clipPath id="4249b92d4a"><path d="M 0.46875 0.300781 L 14.128906 0.300781 L 14.128906 18.125 L 0.46875 18.125 Z M 0.46875 0.300781 " clip-rule="nonzero"/></clipPath><clipPath id="fee9a47e5c"><path d="M 5.082031 0.300781 L 14.128906 0.300781 L 9.515625 18.097656 L 0.46875 18.097656 Z M 5.082031 0.300781 " clip-rule="nonzero"/></clipPath><clipPath id="a483177baf"><rect x="0" width="15" y="0" height="19"/></clipPath></defs><g fill="#ffffff" fill-opacity="1"><g transform="translate(113.847573, 208.124986)"><g><path d="M 16.984375 0 L 0.546875 -42.78125 L 11 -42.78125 L 16.6875 -27.5625 L 21.8125 -14 L 32.578125 -42.78125 L 42.953125 -42.78125 L 26.515625 0 Z M 16.984375 0 "/></g></g></g><g fill="#ffffff" fill-opacity="1"><g transform="translate(151.301977, 208.124986)"><g><path d="M 4.765625 12.21875 L 4.765625 4.21875 L 8.4375 4.21875 C 10.351562 4.21875 11.726562 3.921875 12.5625 3.328125 C 13.394531 2.734375 14.078125 1.644531 14.609375 0.0625 L 14.96875 -1.03125 L 0.546875 -32.078125 L 10.8125 -32.078125 L 19.4375 -12.21875 L 22.359375 -20.40625 L 26.640625 -32.078125 L 36.609375 -32.078125 L 22.3125 3.78125 C 21.445312 5.988281 20.460938 7.703125 19.359375 8.921875 C 18.265625 10.140625 16.898438 10.992188 15.265625 11.484375 C 13.640625 11.972656 11.585938 12.21875 9.109375 12.21875 Z M 4.765625 12.21875 "/></g></g></g><g fill="#ffffff" fill-opacity="1"><g transform="translate(182.343662, 208.124986)"><g/></g></g><g fill="#ffffff" fill-opacity="1"><g transform="translate(204.224551, 208.078609)"><g><path d="M 15.34375 0.609375 C 11.550781 0.609375 8.554688 -0.273438 6.359375 -2.046875 C 4.160156 -3.816406 3.0625 -6.25 3.0625 -9.34375 C 3.0625 -12.320312 4.046875 -14.695312 6.015625 -16.46875 C 7.992188 -18.238281 10.65625 -19.125 14 -19.125 L 25.609375 -19.125 L 25.609375 -20.59375 C 25.609375 -22.1875 25.035156 -23.457031 23.890625 -24.40625 C 22.753906 -25.363281 21.269531 -25.84375 19.4375 -25.84375 C 17.925781 -25.84375 16.640625 -25.492188 15.578125 -24.796875 C 14.523438 -24.109375 13.851562 -23.195312 13.5625 -22.0625 L 4.640625 -22.0625 C 5.210938 -25.5625 6.789062 -28.25 9.375 -30.125 C 11.96875 -32 15.300781 -32.9375 19.375 -32.9375 C 24.175781 -32.9375 27.929688 -31.722656 30.640625 -29.296875 C 33.347656 -26.878906 34.703125 -23.550781 34.703125 -19.3125 L 34.703125 0 L 27.8125 0 L 26.765625 -3.734375 C 23.953125 -0.835938 20.144531 0.609375 15.34375 0.609375 Z M 12.21875 -9.71875 C 12.21875 -8.613281 12.695312 -7.722656 13.65625 -7.046875 C 14.613281 -6.378906 15.890625 -6.046875 17.484375 -6.046875 C 19.796875 -6.046875 21.71875 -6.71875 23.25 -8.0625 C 24.78125 -9.40625 25.585938 -11.160156 25.671875 -13.328125 L 16.859375 -13.328125 C 15.472656 -13.328125 14.351562 -13 13.5 -12.34375 C 12.644531 -11.6875 12.21875 -10.8125 12.21875 -9.71875 Z M 12.21875 -9.71875 "/></g></g></g><g fill="#ffffff" fill-opacity="1"><g transform="translate(236.91303, 208.078609)"><g><path d="M 4.640625 0 L 4.640625 -45.21875 L 13.9375 -45.21875 L 13.9375 0 Z M 4.640625 0 "/></g></g></g><g clip-path="url(#0afd989d28)"><g transform="matrix(1, 0, 0, 1, 155, 196)"><g clip-path="url(#21580c2411)"><g clip-path="url(#3c341c91d7)"><path fill="#1e1c1c" d="M 0.144531 0.816406 L 19.976562 0.816406 L 19.976562 27.929688 L 0.144531 27.929688 Z M 0.144531 0.816406 " fill-opacity="1" fill-rule="nonzero"/></g></g></g></g><g clip-path="url(#fb0329c4ef)"><g transform="matrix(1, 0, 0, 1, 244, 172)"><g clip-path="url(#227739e282)"><g clip-path="url(#6a67f47229)"><path fill="#ffffff" d="M 0.453125 0.300781 L 8.503906 0.300781 L 8.503906 15.492188 L 0.453125 15.492188 Z M 0.453125 0.300781 " fill-opacity="1" fill-rule="nonzero"/></g></g></g></g><g clip-path="url(#4c851d1bd9)"><g clip-path="url(#cd799dd133)"><g clip-path="url(#0e9bc83aab)"><g transform="matrix(1, 0, 0, 1, 162, 193)"><g clip-path="url(#bac1be9955)"><g clip-path="url(#d5807b6eb1)"><g clip-path="url(#ed803d0d53)"><g clip-path="url(#665ae9e20e)"><path fill="#8f8f8f" d="M 5.488281 -0.796875 L 18.523438 1.828125 L 13.09375 28.761719 L 0.0625 26.132812 Z M 5.488281 -0.796875 " fill-opacity="1" fill-rule="nonzero"/></g></g></g></g></g></g></g></g><g clip-path="url(#ad1586b452)"><g clip-path="url(#c3941f6e64)"><g transform="matrix(1, 0, 0, 1, 244, 172)"><g clip-path="url(#a483177baf)"><g clip-path="url(#4249b92d4a)"><g clip-path="url(#fee9a47e5c)"><path fill="#8f8f8f" d="M 0.46875 0.300781 L 14.128906 0.300781 L 14.128906 18.125 L 0.46875 18.125 Z M 0.46875 0.300781 " fill-opacity="1" fill-rule="nonzero"/></g></g></g></g></g></g><g fill="#ffffff" fill-opacity="1"><g transform="translate(193.858043, 211.969668)"><g><path d="M 4.28125 -1.8125 L -8.203125 -31.359375 L -1.84375 -34.046875 L 0.9375 -30.59375 C 1.332031 -32.382812 2.109375 -33.890625 3.265625 -35.109375 C 4.429688 -36.328125 6.101562 -37.398438 8.28125 -38.328125 L 11.5 -39.671875 L 14.78125 -31.921875 L 11.515625 -30.546875 C 9.078125 -29.515625 7.429688 -28.039062 6.578125 -26.125 C 5.722656 -24.21875 5.972656 -21.671875 7.328125 -18.484375 L 12.84375 -5.421875 Z M 4.28125 -1.8125 "/></g></g></g></svg>